<?xml version="1.0" encoding="UTF-8" standalone="no"?>
<!DOCTYPE svg PUBLIC "-//W3C//DTD SVG 1.1//EN" "http://www.w3.org/Graphics/SVG/1.1/DTD/svg11.dtd">
<svg version="1.1" xmlns="http://www.w3.org/2000/svg" xmlns:xlink="http://www.w3.org/1999/xlink" preserveAspectRatio="xMidYMid meet" viewBox="0 0 640 640" width="16" height="16"><defs><path d="M410.23 286.16L411.79 287.4L413.32 288.67L414.83 289.97L416.3 291.3L417.75 292.65L419.17 294.03L420.56 295.43L421.93 296.86L423.26 298.31L424.56 299.79L425.83 301.29L427.08 302.81L428.29 304.36L429.47 305.93L430.62 307.52L431.74 309.13L432.83 310.77L433.88 312.42L434.91 314.1L435.9 315.8L436.86 317.51L437.79 319.25L438.69 321L439.55 322.77L440.38 324.56L441.17 326.37L441.93 328.2L442.66 330.04L443.35 331.9L444.01 333.78L444.63 335.67L445.22 337.57L445.78 339.5L446.29 341.43L446.78 343.38L447.22 345.34L447.63 347.32L448 349.31L448.34 351.31L448.64 353.32L448.9 355.33L449.12 357.34L449.3 359.34L449.45 361.34L449.55 363.35L449.62 365.34L449.65 367.34L449.64 369.33L449.6 371.32L449.51 373.3L449.39 375.28L449.23 377.25L449.03 379.22L448.8 381.18L448.53 383.13L448.22 385.07L447.87 387.01L447.49 388.94L447.07 390.86L446.61 392.77L446.12 394.67L445.59 396.56L445.02 398.44L444.42 400.31L443.78 402.17L443.11 404.02L442.39 405.85L441.65 407.67L440.86 409.48L440.04 411.27L439.19 413.05L438.3 414.81L437.38 416.56L436.41 418.29L435.42 420.01L434.39 421.71L433.32 423.39L432.22 425.06L431.09 426.71L318.74 586.43L317.53 588.1L316.3 589.75L315.05 591.35L313.76 592.93L312.45 594.47L311.12 595.98L309.76 597.45L308.37 598.89L306.96 600.29L305.53 601.67L304.08 603L302.6 604.31L301.11 605.58L299.59 606.81L298.05 608.02L296.49 609.18L294.92 610.32L293.32 611.41L291.71 612.48L290.08 613.5L288.43 614.5L286.76 615.46L285.08 616.38L283.39 617.27L281.68 618.12L279.95 618.94L278.22 619.72L276.46 620.47L274.7 621.18L272.93 621.85L271.14 622.49L269.34 623.1L267.53 623.67L265.71 624.2L263.89 624.69L262.05 625.15L260.21 625.58L258.36 625.96L256.5 626.31L254.64 626.63L252.77 626.91L250.89 627.15L249.01 627.35L247.13 627.52L245.24 627.65L243.35 627.74L241.46 627.8L239.56 627.81L237.66 627.8L235.77 627.74L233.87 627.65L231.97 627.51L230.08 627.34L228.18 627.14L226.29 626.89L224.4 626.61L222.51 626.29L220.63 625.93L218.75 625.53L216.88 625.1L215.01 624.62L213.14 624.11L211.29 623.56L209.44 622.97L207.6 622.34L205.76 621.68L203.94 620.97L202.12 620.22L200.32 619.44L198.52 618.62L196.73 617.75L194.96 616.85L193.2 615.91L191.45 614.93L189.72 613.91L187.99 612.85L186.29 611.75L184.59 610.61L182.92 609.43L181.25 608.21L137.93 575.7L136.34 574.49L134.78 573.24L133.25 571.97L131.74 570.68L130.26 569.35L128.82 568L127.4 566.62L126.01 565.22L124.64 563.79L123.31 562.34L122.01 560.87L120.74 559.37L119.49 557.84L118.28 556.3L117.1 554.73L115.95 553.14L114.83 551.52L113.74 549.89L112.69 548.23L111.66 546.56L110.67 544.86L109.71 543.14L108.78 541.41L107.89 539.65L107.02 537.88L106.19 536.09L105.4 534.28L104.64 532.46L103.91 530.61L103.22 528.75L102.56 526.88L101.94 524.99L101.35 523.08L100.8 521.16L100.28 519.22L99.8 517.27L99.35 515.31L98.94 513.33L98.57 511.34L98.23 509.34L97.93 507.33L97.67 505.33L97.45 503.32L97.27 501.31L97.13 499.31L97.02 497.31L96.95 495.31L96.92 493.32L96.93 491.33L96.98 489.34L97.06 487.36L97.18 485.38L97.34 483.41L97.54 481.44L97.78 479.48L98.05 477.53L98.36 475.58L98.7 473.65L99.09 471.72L99.51 469.8L99.96 467.89L100.46 465.99L100.99 464.1L101.55 462.22L102.16 460.35L102.79 458.49L103.47 456.64L104.18 454.81L104.93 452.99L105.71 451.18L106.53 449.39L107.38 447.61L108.27 445.85L109.2 444.1L110.16 442.36L111.15 440.65L112.18 438.95L113.25 437.26L114.35 435.6L115.48 433.95L204.69 307.13L252.8 343.22L163.59 470.04L163.14 470.7L162.7 471.36L162.28 472.03L161.87 472.71L161.47 473.39L161.09 474.08L160.72 474.78L160.36 475.48L160.02 476.19L159.7 476.91L159.39 477.63L159.09 478.35L158.8 479.08L158.54 479.82L158.28 480.56L158.04 481.3L157.81 482.05L157.6 482.81L157.41 483.56L157.22 484.33L157.06 485.09L156.9 485.86L156.77 486.63L156.64 487.41L156.53 488.19L156.44 488.97L156.36 489.75L156.3 490.54L156.25 491.32L156.22 492.11L156.2 492.9L156.19 493.7L156.21 494.49L156.23 495.29L156.27 496.09L156.33 496.88L156.4 497.68L156.49 498.48L156.6 499.28L156.71 500.08L156.85 500.88L157 501.67L157.16 502.46L157.34 503.24L157.53 504.02L157.74 504.79L157.96 505.55L158.19 506.31L158.44 507.07L158.7 507.81L158.98 508.55L159.27 509.29L159.57 510.02L159.89 510.74L160.21 511.45L160.56 512.15L160.91 512.85L161.28 513.54L161.67 514.23L162.06 514.9L162.47 515.57L162.89 516.23L163.32 516.88L163.77 517.52L164.23 518.16L164.7 518.78L165.18 519.4L165.68 520L166.18 520.6L166.7 521.19L167.23 521.77L167.78 522.34L168.33 522.9L168.89 523.44L169.47 523.98L170.06 524.51L170.66 525.03L171.27 525.53L171.89 526.03L172.52 526.51L215.85 559.02L217.18 559.98L218.54 560.87L219.91 561.7L221.31 562.46L222.73 563.17L224.16 563.81L225.61 564.39L227.08 564.9L228.56 565.36L230.04 565.75L231.54 566.08L233.04 566.35L234.55 566.56L236.06 566.71L237.57 566.8L239.08 566.83L240.59 566.8L242.1 566.71L243.6 566.57L245.09 566.36L246.57 566.09L248.04 565.77L249.5 565.39L250.95 564.95L252.38 564.46L253.79 563.9L255.18 563.29L256.54 562.63L257.89 561.91L259.21 561.13L260.5 560.3L261.77 559.41L263 558.46L264.2 557.46L265.37 556.41L266.5 555.3L267.59 554.14L268.65 552.93L269.66 551.66L270.63 550.34L382.98 390.61L383.43 389.96L383.87 389.29L384.29 388.62L384.7 387.94L385.1 387.26L385.48 386.57L385.85 385.87L386.21 385.17L386.55 384.46L386.87 383.75L387.19 383.03L387.48 382.3L387.77 381.57L388.04 380.84L388.29 380.1L388.53 379.35L388.76 378.6L388.97 377.85L389.16 377.09L389.35 376.33L389.51 375.57L389.67 374.8L389.81 374.03L389.93 373.25L390.04 372.47L390.13 371.69L390.21 370.91L390.27 370.12L390.32 369.34L390.35 368.55L390.37 367.75L390.38 366.96L390.36 366.17L390.34 365.37L390.3 364.57L390.24 363.78L390.16 362.98L390.08 362.18L389.97 361.38L389.85 360.58L389.72 359.78L389.57 358.99L389.41 358.2L389.23 357.42L389.04 356.64L388.83 355.87L388.61 355.11L388.38 354.35L388.13 353.59L387.87 352.85L387.59 352.1L387.3 351.37L387 350.64L386.68 349.92L386.35 349.21L386.01 348.5L385.65 347.8L385.28 347.11L384.9 346.43L384.5 345.75L384.09 345.08L383.67 344.42L383.24 343.77L382.79 343.13L382.33 342.49L381.86 341.87L381.38 341.25L380.88 340.65L380.38 340.05L379.86 339.46L379.33 338.88L378.78 338.31L378.23 337.75L377.66 337.2L377.09 336.66L376.5 336.14L375.9 335.62L375.29 335.11L374.66 334.62L374.03 334.13L330.71 301.63L365.31 252.44L408.64 284.94L410.23 286.16ZM455.86 18.48L457.83 18.58L459.79 18.71L461.74 18.88L463.69 19.08L465.63 19.33L467.56 19.61L469.49 19.93L471.41 20.29L473.32 20.69L475.22 21.12L477.11 21.59L479 22.1L480.87 22.64L482.74 23.22L484.59 23.84L486.43 24.49L488.26 25.18L490.08 25.91L491.88 26.68L493.67 27.47L495.45 28.31L497.22 29.18L498.97 30.09L500.7 31.03L502.42 32.01L504.12 33.03L505.81 34.08L507.48 35.17L509.13 36.29L510.77 37.44L554.74 69.19L556.35 70.37L557.94 71.59L559.49 72.83L561.02 74.1L562.52 75.4L563.99 76.72L565.42 78.06L566.83 79.44L568.21 80.83L569.56 82.25L570.88 83.7L572.17 85.17L573.43 86.66L574.66 88.18L575.85 89.72L577.02 91.27L578.15 92.86L579.25 94.46L580.32 96.08L581.35 97.73L582.35 99.39L583.32 101.07L584.26 102.78L585.16 104.5L586.03 106.24L586.86 108L587.66 109.77L588.43 111.57L589.16 113.38L589.85 115.2L590.51 117.04L591.14 118.9L591.73 120.78L592.28 122.66L592.8 124.57L593.28 126.48L593.72 128.41L594.13 130.36L594.5 132.31L594.83 134.28L595.12 136.26L595.37 138.23L595.59 140.2L595.76 142.18L595.9 144.15L595.99 146.12L596.05 148.08L596.07 150.04L596.05 152L595.99 153.96L595.89 155.91L595.76 157.86L595.58 159.8L595.37 161.74L595.12 163.67L594.83 165.59L594.51 167.51L594.14 169.41L593.74 171.32L593.3 173.21L592.83 175.09L592.31 176.96L591.76 178.83L591.17 180.68L590.55 182.53L589.89 184.36L589.19 186.18L588.45 187.99L587.68 189.78L586.87 191.57L586.03 193.34L585.15 195.09L584.23 196.83L583.28 198.56L582.29 200.27L581.27 201.96L580.21 203.64L579.11 205.31L577.98 206.95L576.82 208.58L485.16 333.91L436.33 298.66L527.98 173.33L528.45 172.68L528.9 172.03L529.34 171.37L529.76 170.7L530.17 170.02L530.56 169.34L530.94 168.65L531.3 167.96L531.65 167.26L531.99 166.55L532.31 165.84L532.62 165.13L532.91 164.41L533.19 163.68L533.46 162.95L533.7 162.22L533.94 161.48L534.16 160.73L534.36 159.99L534.55 159.24L534.73 158.48L534.89 157.73L535.03 156.97L535.16 156.2L535.28 155.44L535.38 154.67L535.46 153.9L535.53 153.12L535.59 152.35L535.62 151.57L535.65 150.79L535.66 150.01L535.65 149.23L535.63 148.44L535.59 147.66L535.53 146.87L535.46 146.09L535.38 145.3L535.28 144.51L535.16 143.73L535.03 142.94L534.88 142.16L534.72 141.39L534.54 140.62L534.35 139.86L534.15 139.1L533.93 138.35L533.69 137.6L533.44 136.86L533.18 136.13L532.9 135.4L532.61 134.68L532.31 133.97L531.99 133.26L531.66 132.56L531.31 131.87L530.95 131.18L530.58 130.5L530.19 129.83L529.79 129.17L529.38 128.51L528.96 127.87L528.52 127.23L528.07 126.6L527.6 125.98L527.13 125.37L526.64 124.76L526.14 124.17L525.63 123.58L525.1 123.01L524.56 122.44L524.01 121.88L523.45 121.34L522.88 120.8L522.29 120.28L521.7 119.76L521.09 119.25L520.47 118.76L519.84 118.28L519.2 117.8L475.22 86.05L474.57 85.59L473.91 85.15L473.24 84.71L472.57 84.3L471.89 83.89L471.21 83.5L470.52 83.13L469.82 82.76L469.12 82.42L468.41 82.08L467.7 81.77L466.98 81.46L466.25 81.17L465.52 80.9L464.79 80.64L464.05 80.39L463.31 80.16L462.56 79.94L461.81 79.74L461.06 79.55L460.3 79.38L459.54 79.22L458.77 79.08L458.01 78.95L457.23 78.84L456.46 78.74L455.69 78.66L454.91 78.59L454.13 78.54L453.35 78.5L452.56 78.48L451.78 78.47L450.99 78.48L450.2 78.51L449.41 78.55L448.62 78.6L447.83 78.67L447.04 78.76L446.25 78.86L445.46 78.98L444.67 79.11L443.88 79.26L443.1 79.42L442.33 79.6L441.56 79.79L440.8 80L440.04 80.22L439.29 80.45L438.55 80.7L437.81 80.96L437.08 81.24L436.35 81.53L435.63 81.83L434.92 82.15L434.21 82.48L433.52 82.83L432.82 83.19L432.14 83.56L431.47 83.95L430.8 84.34L430.14 84.75L429.49 85.18L428.84 85.62L428.21 86.06L427.58 86.53L426.97 87L426.36 87.49L425.76 87.99L425.17 88.5L424.59 89.02L424.02 89.56L423.46 90.11L422.91 90.66L422.37 91.24L421.84 91.82L421.32 92.41L420.81 93.02L420.31 93.64L419.82 94.26L419.34 94.9L303.9 252.76L303.44 253.41L302.99 254.07L302.55 254.73L302.13 255.4L301.72 256.07L301.33 256.76L300.95 257.44L300.58 258.14L300.23 258.84L299.89 259.54L299.57 260.25L299.26 260.97L298.97 261.69L298.69 262.41L298.43 263.14L298.18 263.88L297.95 264.61L297.73 265.36L297.52 266.1L297.33 266.85L297.16 267.61L297 268.37L296.85 269.13L296.72 269.89L296.61 270.65L296.51 271.42L296.43 272.2L296.36 272.97L296.3 273.74L296.26 274.52L296.24 275.3L296.23 276.08L296.24 276.86L296.26 277.65L296.3 278.43L296.35 279.22L296.42 280L296.51 280.79L296.61 281.58L296.73 282.36L296.86 283.15L297.01 283.93L297.17 284.7L297.35 285.47L297.54 286.23L297.74 286.99L297.96 287.74L298.2 288.49L298.45 289.23L298.71 289.96L298.99 290.69L299.28 291.41L299.58 292.13L299.9 292.83L300.23 293.53L300.58 294.23L300.94 294.91L301.31 295.59L301.7 296.26L302.1 296.92L302.51 297.58L302.93 298.23L303.37 298.86L303.82 299.49L304.29 300.11L304.76 300.73L305.25 301.33L305.75 301.93L306.27 302.51L306.79 303.09L307.33 303.65L307.88 304.21L308.44 304.76L309.02 305.29L309.6 305.82L310.2 306.33L310.81 306.84L311.43 307.33L312.06 307.82L312.7 308.29L356.68 340.04L321.13 388.65L277.16 356.91L275.55 355.72L273.96 354.51L272.41 353.27L270.88 352L269.38 350.7L267.91 349.38L266.47 348.03L265.06 346.66L263.68 345.26L262.33 343.84L261.01 342.4L259.72 340.93L258.47 339.44L257.24 337.92L256.04 336.38L254.88 334.82L253.75 333.24L252.65 331.64L251.58 330.02L250.54 328.37L249.54 326.71L248.57 325.03L247.64 323.32L246.74 321.6L245.87 319.86L245.03 318.1L244.23 316.33L243.47 314.53L242.74 312.72L242.04 310.9L241.38 309.05L240.75 307.2L240.17 305.32L239.61 303.43L239.1 301.53L238.61 299.61L238.17 297.68L237.76 295.74L237.4 293.78L237.06 291.81L236.77 289.84L236.52 287.87L236.3 285.89L236.13 283.92L235.99 281.95L235.9 279.98L235.84 278.01L235.82 276.05L235.84 274.09L235.9 272.13L236 270.18L236.13 268.23L236.3 266.29L236.52 264.36L236.77 262.43L237.05 260.5L237.38 258.59L237.74 256.68L238.15 254.78L238.58 252.88L239.06 251L239.57 249.13L240.13 247.26L240.71 245.41L241.34 243.57L242 241.73L242.7 239.91L243.43 238.1L244.2 236.31L245.01 234.53L245.86 232.76L246.74 231L247.65 229.26L248.61 227.53L249.6 225.82L250.62 224.13L251.68 222.45L252.78 220.79L253.91 219.14L255.07 217.51L370.51 59.66L371.71 58.05L372.93 56.48L374.19 54.93L375.47 53.41L376.77 51.92L378.1 50.45L379.46 49.02L380.85 47.62L382.25 46.24L383.69 44.9L385.14 43.58L386.62 42.3L388.13 41.04L389.65 39.82L391.2 38.63L392.77 37.47L394.37 36.34L395.98 35.25L397.61 34.18L399.27 33.15L400.95 32.15L402.64 31.18L404.36 30.25L406.09 29.35L407.84 28.48L409.61 27.65L411.4 26.85L413.2 26.09L415.03 25.36L416.86 24.66L418.72 24L420.59 23.38L422.47 22.79L424.37 22.23L426.29 21.72L428.22 21.24L430.16 20.79L432.11 20.38L434.08 20.01L436.06 19.68L438.05 19.39L440.04 19.13L442.02 18.91L444.01 18.74L445.99 18.6L447.97 18.5L449.95 18.44L451.92 18.41L453.9 18.43L455.86 18.48Z" id="b3wDVI9X3e"></path></defs><g><g><g><use xlink:href="#b3wDVI9X3e" opacity="1" fill="#C5C5C5" fill-opacity="1"></use><g><use xlink:href="#b3wDVI9X3e" opacity="1" fill-opacity="0" stroke="#000000" stroke-width="1" stroke-opacity="0"></use></g></g></g></g></svg>